<?xml version="1.0" encoding="utf-8"?>
<!-- Generator: Adobe Illustrator 27.0.0, SVG Export Plug-In . SVG Version: 6.00 Build 0)  -->
<svg version="1.1" id="Layer_1" xmlns="http://www.w3.org/2000/svg" xmlns:xlink="http://www.w3.org/1999/xlink" x="0px" y="0px"
	 viewBox="0 0 31 31" style="enable-background:new 0 0 31 31;" xml:space="preserve">
<style type="text/css">
	.st0{fill-rule:evenodd;clip-rule:evenodd;fill:#D4D4D4;}
	.st1{fill:#CCCCCC;}
	.st2{fill:#FFFFFF;}
</style>
<g>
	<g>
		<path class="st2" d="M23.8,5.4C23.8,5.4,23.8,5.4,23.8,5.4c1,0,1.9,0.8,1.9,1.9c0,1-0.8,1.9-1.9,1.9c-1,0-1.8-0.8-1.8-1.9
			C22,6.2,22.8,5.4,23.8,5.4z"/>
	</g>
	<g>
		<path class="st2" d="M30.8,7.8c0.2,2.4,0.4,14-0.3,16.7c-1,3.5-3.3,5.6-6.8,6.2c-1.3,0.2-4.9,0.3-8.5,0.3c-3.7,0-7.4-0.1-8.6-0.5
			c-3.5-0.9-5.6-3.2-6.2-6.8C-0.1,21.2-0.2,9,0.6,6.4c1-3.4,3.3-5.4,6.8-6C8.9,0.1,12,0,15.1,0c2.9,0,5.8,0.1,7.6,0.2
			c2.1,0.1,4.1,0.8,5.7,2.3C29.8,3.9,30.6,5.7,30.8,7.8z M27.8,23.3C28.3,20.5,28.3,10.6,28,8c-0.3-2.7-1.9-4.5-4.6-4.9
			c-1.3-0.2-4.5-0.3-7.7-0.3c-3.1,0-6.2,0.1-7.5,0.2c-2.7,0.3-4.5,2-5,4.7c-0.4,2.8-0.4,13.5-0.1,15.6c0.3,2.2,1.6,3.8,3.8,4.4
			c1.2,0.3,4.8,0.5,8.3,0.5c3.3,0,6.4-0.1,7.6-0.2C25.6,27.6,27.4,26,27.8,23.3"/>
	</g>
	<g>
		<path class="st2" d="M15.6,7.6c4.4,0,7.9,3.6,7.9,8c0,4.4-3.6,7.9-8,7.9c-4.4,0-7.9-3.6-7.9-8C7.6,11.1,11.2,7.5,15.6,7.6z
			 M15.4,20.6c2.8,0,5.1-2.3,5.2-5.1c0-2.8-2.2-5.2-5-5.2c0,0,0,0,0,0c-2.8,0-5.1,2.3-5.2,5.1C10.3,18.3,12.6,20.6,15.4,20.6
			C15.4,20.6,15.4,20.6,15.4,20.6"/>
	</g>
</g>
</svg>
