<?xml version="1.0" encoding="utf-8"?>
<!-- Generator: Adobe Illustrator 27.0.0, SVG Export Plug-In . SVG Version: 6.00 Build 0)  -->
<svg version="1.1" xmlns="http://www.w3.org/2000/svg" xmlns:xlink="http://www.w3.org/1999/xlink" x="0px" y="0px"
	 viewBox="0 0 299.4 193.4" style="enable-background:new 0 0 299.4 193.4;" xml:space="preserve">
<style type="text/css">
	.st0{fill:#DA3832;}
	.st1{fill-rule:evenodd;clip-rule:evenodd;fill:#DA3832;}
</style>
<g>
	<g>
		<path class="st0" d="M8.6,160.3l6.2,23.7l6.2-23.7h8.6V193H23v-8.8l0.6-13.6L17,193h-4.5L6,170.5l0.6,13.6v8.8H0v-32.7H8.6z"/>
		<path class="st0" d="M58.4,179.6c0,4.4-1,7.8-3.1,10.2c-2.1,2.4-5,3.6-8.6,3.6c-3.7,0-6.6-1.2-8.6-3.6s-3.2-5.8-3.2-10.1v-5.6
			c0-4.5,1-8,3.1-10.5c2.1-2.5,5-3.8,8.7-3.8c3.6,0,6.5,1.2,8.6,3.7c2.1,2.5,3.2,6,3.2,10.4V179.6z M51.7,174.1c0-3-0.4-5.1-1.3-6.6
			s-2.1-2.2-3.9-2.2c-1.8,0-3,0.7-3.9,2.1c-0.8,1.4-1.3,3.5-1.3,6.3v5.8c0,2.9,0.4,5,1.3,6.3c0.9,1.4,2.2,2,4,2c1.7,0,3-0.7,3.8-2
			s1.3-3.4,1.3-6.2V174.1z"/>
		<path class="st0" d="M73.7,184l5.5-23.7h7.4L77.2,193h-6.9l-9.4-32.7h7.3L73.7,184z"/>
		<path class="st0" d="M97,193h-6.6v-32.7H97V193z"/>
		<path class="st0" d="M119.9,178.8h-10.3v8.7h12.2v5.5H103v-32.7h18.7v5.5h-12.1v7.7h10.3V178.8z"/>
		<path class="st0" d="M143.7,187.5h11.6v5.5h-18.2v-32.7h6.6V187.5z"/>
		<path class="st0" d="M166.5,193h-6.6v-32.7h6.6V193z"/>
		<path class="st0" d="M172.5,193v-32.7h10.1c3.4,0,6,0.8,7.8,2.3c1.8,1.5,2.7,3.7,2.7,6.7c0,1.7-0.4,3.1-1.1,4.3s-1.7,2.1-3,2.6
			c1.5,0.4,2.6,1.3,3.4,2.5c0.8,1.3,1.2,2.8,1.2,4.7c0,3.2-0.9,5.6-2.6,7.2c-1.7,1.6-4.3,2.4-7.6,2.4H172.5z M179.1,173.9h3.4
			c2.6,0,3.9-1.3,3.9-4c0-1.5-0.3-2.5-0.9-3.2s-1.6-1-2.9-1h-3.5V173.9z M179.1,178.7v8.7h4.2c1.2,0,2.1-0.4,2.7-1.1
			s0.9-1.8,0.9-3.1c0-2.9-1.1-4.4-3.2-4.5H179.1z"/>
		<path class="st0" d="M208.7,181h-3.3V193h-6.6v-32.7h10.5c3.3,0,5.9,0.9,7.7,2.6c1.8,1.7,2.7,4.2,2.7,7.3c0,4.3-1.6,7.4-4.7,9.1
			l5.7,13.4v0.3h-7.1L208.7,181z M205.4,175.5h3.8c1.3,0,2.3-0.4,3-1.3s1-2,1-3.5c0-3.3-1.3-4.9-3.8-4.9h-3.9V175.5z"/>
		<path class="st0" d="M240.3,186.3h-9l-1.8,6.7h-7l10.2-32.7h6l10.3,32.7h-7.1L240.3,186.3z M232.7,180.8h6.1l-3.1-11.7
			L232.7,180.8z"/>
		<path class="st0" d="M262.5,181h-3.3V193h-6.6v-32.7h10.5c3.3,0,5.9,0.9,7.7,2.6c1.8,1.7,2.7,4.2,2.7,7.3c0,4.3-1.6,7.4-4.7,9.1
			l5.7,13.4v0.3h-7.1L262.5,181z M259.3,175.5h3.8c1.3,0,2.3-0.4,3-1.3s1-2,1-3.5c0-3.3-1.3-4.9-3.8-4.9h-3.9V175.5z"/>
		<path class="st0" d="M287.3,175l4.9-14.7h7.2l-8.8,20.8V193H284v-11.9l-8.8-20.8h7.2L287.3,175z"/>
	</g>
	<g>
		<path class="st1" d="M87.4,75.9l12.1,7c1,0.6,1.4,1.9,0.8,3l-7,12.1c-0.6,1-1.9,1.4-3,0.8l-12.1-7c-1-0.6-1.4-1.9-0.8-3l7-12.1
			C85,75.7,86.4,75.3,87.4,75.9 M101.7,51.2l12.1,7c1,0.6,1.4,1.9,0.8,3l-7,12.1c-0.6,1-1.9,1.4-3,0.8l-12.1-7c-1-0.6-1.4-1.9-0.8-3
			l7-12.1C99.3,50.9,100.7,50.6,101.7,51.2z M116,26.4l12.1,7c1,0.6,1.4,1.9,0.8,3l-7,12.1c-0.6,1-1.9,1.4-3,0.8l-12.1-7
			c-1-0.6-1.4-1.9-0.8-3l7-12.1C113.6,26.2,115,25.8,116,26.4z M212.4,115.1l12.1,7c1,0.6,1.4,1.9,0.8,3l-7,12.1
			c-0.6,1-1.9,1.4-3,0.8l-12.1-7c-1-0.6-1.4-1.9-0.8-3l7-12.1C210,114.8,211.4,114.5,212.4,115.1z M226.7,90.3l12.1,7
			c1,0.6,1.4,1.9,0.8,3l-7,12.1c-0.6,1-1.9,1.4-3,0.8l-12.1-7c-1-0.6-1.4-1.9-0.8-3l7-12.1C224.3,90.1,225.7,89.7,226.7,90.3z
			 M231.6,63.9l5.9,3.4l-6.4,11.2c-0.6,1-0.2,2.4,0.8,3l12.1,7c1,0.6,2.4,0.2,3-0.8l6.4-11.2l5.7,3.3l-34.5,59.8H188L231.6,63.9z
			 M79.6,121.8c-0.6,1-1.9,1.4-3,0.8l-12.1-7c-1-0.6-1.4-1.9-0.8-3l6.5-11.2c0.6-1,1.9-1.4,3-0.8l12.1,7c1,0.6,1.4,1.9,0.8,3
			L79.6,121.8z M77,139.6l8.3-14.4l6.4-11.2l56.6-98.1l-5.7-3.3l-6.4,11.2c-0.6,1-1.9,1.4-3,0.8l-12.1-7c-1-0.6-1.4-1.9-0.8-3
			l6.4-11.2L120.9,0L64.3,98.1l-6.4,11.2l-17.5,30.3h9c-0.4-0.6-0.4-1.5,0-2.1l7-12.1c0.6-1,1.9-1.4,3-0.8l12.1,7
			c1,0.6,1.4,1.9,0.8,3l-2.9,5.1H77z M94.7,139.6l3.9-6.8l6.4-11.2l16.6-28.7c2.3-3.9,7.4-5.3,11.3-3l42.4,24.5
			c3.9,2.3,5.3,7.4,3,11.3l-8,13.9H94.7z M218.4,56.3l-23,39.9c-2.3,3.9-7.4,5.3-11.3,3l-42.4-24.5c-3.9-2.3-5.3-7.4-3-11.3l23-39.9
			L218.4,56.3z"/>
	</g>
</g>
</svg>
