<?xml version="1.0" encoding="utf-8"?>
<!-- Generator: Adobe Illustrator 27.0.0, SVG Export Plug-In . SVG Version: 6.00 Build 0)  -->
<svg version="1.1" id="Layer_1" xmlns="http://www.w3.org/2000/svg" xmlns:xlink="http://www.w3.org/1999/xlink" x="0px" y="0px"
	 viewBox="0 0 32 22.4" style="enable-background:new 0 0 32 22.4;" xml:space="preserve">
<style type="text/css">
	.st0{fill:#FFFFFF;}
</style>
<g>
	<path class="st0" d="M31.2,2.9c1.1,3,1.1,14-0.3,16.9c-0.4,0.8-1,1.3-1.7,1.8c-1.1,0.6-7.3,0.8-13.5,0.8c-5.6,0-11.2-0.2-12.5-0.6
		c-1.2-0.4-2-1.2-2.4-2.4c-1-2.9-1.3-15.2,0.8-17.6C2.3,1,3.2,0.5,4.3,0.4C6.7,0.1,11.5,0,16.2,0C22,0,27.7,0.2,28.8,0.6
		C30,1,30.8,1.8,31.2,2.9z M12,16c3.3-1.7,6.6-3.4,10-5.2c-3.3-1.7-6.6-3.5-9.9-5.2C12.1,9.2,12.1,12.6,12,16"/>
</g>
</svg>
